<svg id="Layer_2" data-name="Layer 2" xmlns="http://www.w3.org/2000/svg" width="156.122" height="36.177" viewBox="0 0 156.122 36.177">
  <g id="Layer_1" data-name="Layer 1">
    <path id="Path_1164" data-name="Path 1164" d="M30.226,0H9.21V2.58H27.651v5.6h2.6ZM18.935,29.3l2.157,1.609.98-.728V26.963Zm-1.081,2.411-1.078-.8L15.138,32.12,2.65,22.842V14.035a2.092,2.092,0,0,1,0-2.193V2.58H6.63V0H.07V24.14l15.079,11.2,3.794-2.823Zm12.4-16.285H27.677v7.365l-3.029,2.258v3.215l5.612-4.175Zm0-4.663H27.668v2.083h2.586ZM18.963,29.3l1.078.8,2.058-1.53V26.963Z" transform="translate(-0.05)" fill="#54e454"/>
    <path id="Path_1165" data-name="Path 1165" d="M6.464,24.027V17.9a2.14,2.14,0,0,1-.534-.581v8.807l12.5,9.278,1.637-1.217Zm21.478.423v5.482l4.322-3.224L32.247,18.7h-8.4l-2.258,2.044v2.778a2.092,2.092,0,0,1,0,3.356,2.117,2.117,0,0,1-.508.282H19.6a2.128,2.128,0,0,1-.6-.347,2.089,2.089,0,0,1,0-3.218V19.607l3.839-3.483h9.394V14.04H27.818L24,10.791H19.369a2.089,2.089,0,1,1,.071-2.58h5.513l3.814,3.255h3.466V4.576H12.49v7.1L16.033,13.9v4.584a2.089,2.089,0,1,1-2.58,0V15.33L9.91,13.106V4.57H4.64v22.2L18.429,37.009l2.716-2.021-1.078-.8L6.464,24.027V17.9a2.14,2.14,0,0,1-.534-.581,2.092,2.092,0,0,1,1.778-3.187A1.96,1.96,0,0,1,9.8,16.22a2.083,2.083,0,0,1-.757,1.606v4.909l13.182,9.843,1.078.8,2.058-1.53v-7.4a2.089,2.089,0,1,1,2.58,0Z" transform="translate(-3.33 -3.28)" fill="#54e454"/>
    <path id="Path_1166" data-name="Path 1166" d="M38.226,0H17.21V2.58H35.651v5.6h2.6ZM26.935,29.3l2.157,1.609.98-.728V26.963Zm-1.081,2.411-1.078-.8L23.138,32.12,10.65,22.842V14.035a2.092,2.092,0,0,1,0-2.193V2.58h3.98V0H8.07V24.14l15.079,11.2,3.794-2.823Zm12.4-16.285h-2.58v7.365l-3.029,2.258v3.215l5.612-4.175Zm0-4.663h-2.58v2.083h2.58ZM26.963,29.3l1.078.8,2.058-1.53V26.963Z" transform="translate(-5.792)" fill="#173faa"/>
    <path id="Path_1167" data-name="Path 1167" d="M14.464,24.027V17.9a2.14,2.14,0,0,1-.534-.581v8.807l12.5,9.278,1.637-1.217Zm21.478.423v5.482l4.322-3.224L40.247,18.7h-8.4l-2.258,2.044v2.778a2.092,2.092,0,0,1,0,3.356,2.117,2.117,0,0,1-.508.282H27.6a2.128,2.128,0,0,1-.6-.347,2.089,2.089,0,0,1,0-3.218V19.607l3.839-3.483h9.394V14.04H35.818L32,10.791H27.369a2.089,2.089,0,1,1,.071-2.58h5.513l3.814,3.255h3.466V4.576H20.49v7.1L24.033,13.9v4.584a2.089,2.089,0,1,1-2.58,0V15.33L17.91,13.106V4.57H12.64v22.2L26.429,37.009l2.716-2.021-1.078-.8-13.6-10.156V17.9a2.14,2.14,0,0,1-.534-.581,2.092,2.092,0,0,1,1.778-3.187A1.96,1.96,0,0,1,17.8,16.22a2.083,2.083,0,0,1-.757,1.606v4.909l13.182,9.843,1.078.8,2.058-1.53v-7.4a2.089,2.089,0,1,1,2.58,0Z" transform="translate(-9.072 -3.28)" fill="#173faa"/>
    <path id="Path_1168" data-name="Path 1168" d="M35.226,0H14.21V2.58H32.651v5.6h2.6ZM23.935,29.3l2.157,1.609.979-.728V26.963Zm-1.081,2.411-1.078-.8L20.138,32.12,7.65,22.842V14.035a2.092,2.092,0,0,1,0-2.193V2.58h3.98V0H5.07V24.14l15.079,11.2,3.794-2.823Zm12.4-16.285h-2.58v7.365l-3.029,2.258v3.215l5.612-4.175Zm0-4.663h-2.58v2.083h2.58ZM23.963,29.3l1.078.8,2.058-1.53V26.963Z" transform="translate(-3.639)" fill="#df1917"/>
    <path id="Path_1169" data-name="Path 1169" d="M11.464,24.027V17.9a2.14,2.14,0,0,1-.534-.581v8.807l12.5,9.278,1.637-1.217Zm21.478.423v5.482l4.322-3.224L37.247,18.7h-8.4l-2.258,2.044v2.778a2.092,2.092,0,0,1,0,3.356,2.117,2.117,0,0,1-.508.282H24.6a2.128,2.128,0,0,1-.6-.347,2.089,2.089,0,0,1,0-3.218V19.607l3.839-3.483h9.394V14.04H32.818L29,10.791H24.369a2.089,2.089,0,1,1,.071-2.58h5.513l3.814,3.255h3.466V4.576H17.49v7.1L21.033,13.9v4.584a2.089,2.089,0,1,1-2.58,0V15.33L14.91,13.106V4.57H9.64v22.2L23.429,37.009l2.716-2.021-1.078-.8-13.6-10.156V17.9a2.14,2.14,0,0,1-.534-.581,2.092,2.092,0,0,1,1.778-3.187A1.96,1.96,0,0,1,14.8,16.22a2.083,2.083,0,0,1-.757,1.606v4.909l13.182,9.843,1.078.8,2.058-1.53v-7.4a2.089,2.089,0,1,1,2.58,0Z" transform="translate(-6.919 -3.28)" fill="#df1917"/>
    <path id="Path_1170" data-name="Path 1170" d="M152.074.19H142.79V8.548h4.164v8.511h-1.922v8.474h9.287V17.059h1.922V8.548h-4.166Z" transform="translate(-102.484 -0.136)" fill="#54e454"/>
    <path id="Path_1171" data-name="Path 1171" d="M347.068.19H319.21V5.257h18.571V8.548h2.563v1.778H331.06v5.067h9.284v1.665h-1.922v3.4H319.851v5.07h27.858V17.059h1.922V15.393h-4.643V10.327h4.643V8.548h-2.563Z" transform="translate(-229.104 -0.136)" fill="#54e454"/>
    <path id="Path_1172" data-name="Path 1172" d="M225.658.19H197.8V5.257h18.571v3.41h2.563v1.66H209.65v5.067h9.284v1.665h-1.922v3.4H198.441v5.07h29.777V15.393h-4.641V10.327h4.641V8.548h-2.56Z" transform="translate(-141.966 -0.136)" fill="#54e454"/>
    <path id="Path_1173" data-name="Path 1173" d="M462.205,8.548V.19H434.35V5.257h18.568V8.548h2.563v8.511h-1.922v8.474h9.287V17.059h1.922V8.548Z" transform="translate(-311.743 -0.136)" fill="#54e454"/>
    <path id="Path_1174" data-name="Path 1174" d="M163.044.19H153.76V8.548h4.164v8.511H156v8.474h9.287V17.059h1.922V8.548h-4.166Z" transform="translate(-110.357 -0.136)" fill="#173faa"/>
    <path id="Path_1175" data-name="Path 1175" d="M358.038.19H330.18V5.257h18.571V8.548h2.563v1.778H342.03v5.067h9.284v1.665h-1.922v3.4H330.821v5.07h27.858V17.059H360.6V15.393h-4.643V10.327H360.6V8.548h-2.563Z" transform="translate(-236.978 -0.136)" fill="#173faa"/>
    <path id="Path_1176" data-name="Path 1176" d="M236.628.19H208.77V5.257h18.571v3.41H229.9v1.66H220.62v5.067H229.9v1.665h-1.922v3.4H209.411v5.07h29.78V15.393h-4.643V10.327h4.643V8.548h-2.563Z" transform="translate(-149.839 -0.136)" fill="#173faa"/>
    <path id="Path_1177" data-name="Path 1177" d="M473.168,8.548V.19H445.31V5.257h18.571V8.548h2.563v8.511h-1.922v8.474h9.287V17.059h1.922V8.548Z" transform="translate(-319.609 -0.136)" fill="#173faa"/>
    <path id="Path_1178" data-name="Path 1178" d="M160.017.19H150.73V8.548H154.9v8.511h-1.922v8.474h9.284V17.059h1.922V8.548h-4.164Z" transform="translate(-108.182 -0.136)" fill="#df1917"/>
    <path id="Path_1179" data-name="Path 1179" d="M355.015.19H327.16V5.257h18.568V8.548h2.563v1.778h-9.284v5.067h9.284v1.665h-1.922v3.4H327.8v5.07h27.855V17.059h1.922V15.393h-4.643V10.327h4.643V8.548h-2.563Z" transform="translate(-234.81 -0.136)" fill="#df1917"/>
    <path id="Path_1180" data-name="Path 1180" d="M233.605.19H205.75V5.257h18.571v3.41h2.563v1.66H217.6v5.067h9.287v1.665h-1.922v3.4H206.391v5.07h29.777V15.393h-4.643V10.327h4.643V8.548h-2.563Z" transform="translate(-147.671 -0.136)" fill="#df1917"/>
    <path id="Path_1181" data-name="Path 1181" d="M470.145,8.548V.19H442.29V5.257h18.571V8.548h2.563v8.511H461.5v8.474h9.284V17.059h1.922V8.548Z" transform="translate(-317.442 -0.136)" fill="#df1917"/>
    <path id="Path_1182" data-name="Path 1182" d="M155.857.19H146.57V8.548h4.164v8.511h-1.922v8.474H158.1V17.059h1.922V8.548h-4.164Z" transform="translate(-105.197 -0.136)"/>
    <path id="Path_1183" data-name="Path 1183" d="M350.855.19H323V5.257h18.568V8.548h2.563v1.778h-9.284v5.067h9.284v1.665h-1.922v3.4H323.638v5.07H351.5V17.059h1.922V15.393h-4.643V10.327h4.643V8.548h-2.563Z" transform="translate(-231.824 -0.136)"/>
    <path id="Path_1184" data-name="Path 1184" d="M229.445.19H201.59V5.257h18.571v3.41h2.563v1.66h-9.287v5.067h9.287v1.665H220.8v3.4H202.228v5.07h29.78V15.393h-4.643V10.327h4.643V8.548h-2.563Z" transform="translate(-144.686 -0.136)"/>
    <path id="Path_1185" data-name="Path 1185" d="M465.985,8.548V.19H438.13V5.257H456.7V8.548h2.563v8.511h-1.922v8.474h9.284V17.059h1.922V8.548Z" transform="translate(-314.456 -0.136)"/>
    <rect id="Rectangle_310" data-name="Rectangle 310" width="0.96" height="3.382" transform="translate(108.389 16.923)" fill="#df1917"/>
    <rect id="Rectangle_311" data-name="Rectangle 311" width="1.922" height="4.197" transform="translate(141.813 12.725)" fill="#173faa"/>
    <rect id="Rectangle_312" data-name="Rectangle 312" width="7.048" height="0.932" transform="translate(67.961 19.373)" fill="#df1917"/>
    <rect id="Rectangle_313" data-name="Rectangle 313" width="2.989" height="1.993" transform="translate(40.772 23.404)" fill="#173faa"/>
    <rect id="Rectangle_314" data-name="Rectangle 314" width="2.326" height="2.326" transform="translate(121.743 23.096)" fill="#05f2fa"/>
    <rect id="Rectangle_315" data-name="Rectangle 315" width="3.766" height="1.219" transform="translate(50.742 7.144)" fill="#05f2fa"/>
    <rect id="Rectangle_316" data-name="Rectangle 316" width="4.099" height="2.216" transform="translate(73.005 19.217)" fill="#05f2fa"/>
    <rect id="Rectangle_317" data-name="Rectangle 317" width="4.099" height="2.216" transform="translate(137.915 2.936)" fill="#05f2fa"/>
    <rect id="Rectangle_318" data-name="Rectangle 318" width="11.74" height="1.107" transform="translate(56.724 4.042)" fill="#05f2fa"/>
    <rect id="Rectangle_319" data-name="Rectangle 319" width="11.74" height="1.107" transform="translate(56.724 4.042)" fill="#05f2fa"/>
    <rect id="Rectangle_320" data-name="Rectangle 320" width="7.088" height="1.107" transform="translate(100.474 4.042)" fill="#05f2fa"/>
    <path id="Path_1186" data-name="Path 1186" d="M145.463,116.521a2,2,0,0,1-.742-.133,1.555,1.555,0,0,1-.565-.378,1.64,1.64,0,0,1-.356-.565,2.018,2.018,0,0,1-.121-.714,1.906,1.906,0,0,1,.217-.929,1.6,1.6,0,0,1,.6-.635,1.722,1.722,0,0,1,.895-.229,2.162,2.162,0,0,1,.336.025,2.511,2.511,0,0,1,.311.065c.1.028.186.059.268.09a1.975,1.975,0,0,1,.215.1l-.04.423a2.583,2.583,0,0,0-.367-.181,2.2,2.2,0,0,0-.35-.1,1.978,1.978,0,0,0-.336-.031,1.307,1.307,0,0,0-.666.169,1.205,1.205,0,0,0-.457.486,1.6,1.6,0,0,0-.167.751,1.722,1.722,0,0,0,.085.545,1.318,1.318,0,0,0,.26.449,1.166,1.166,0,0,0,.423.3,1.491,1.491,0,0,0,.593.113,1.806,1.806,0,0,0,.248-.017,1.9,1.9,0,0,0,.246-.051,1.544,1.544,0,0,0,.24-.09,1.5,1.5,0,0,0,.231-.135l.034.418a1.278,1.278,0,0,1-.223.116,1.856,1.856,0,0,1-.26.079,2.689,2.689,0,0,1-.282.045A2.317,2.317,0,0,1,145.463,116.521Z" transform="translate(-103.121 -81.059)"/>
    <path id="Path_1187" data-name="Path 1187" d="M161.438,115.271l-.757-1.282c-.082-.135-.161-.268-.234-.4s-.161-.282-.257-.435h.511c.09.155.167.282.229.4l.181.316.186.33.336.59h.042l.327-.565.2-.347c.059-.1.121-.215.186-.325l.229-.4h.494l-.248.418-.24.409-.757,1.284Zm0,1.355V114.9h.44v1.722Z" transform="translate(-114.972 -81.218)"/>
    <path id="Path_1188" data-name="Path 1188" d="M178.788,116.625H177.71v-3.466h1.273a1.951,1.951,0,0,1,.517.056.946.946,0,0,1,.347.164.649.649,0,0,1,.2.257.847.847,0,0,1,.062.339.875.875,0,0,1-.079.387.751.751,0,0,1-.22.282.887.887,0,0,1-.311.164v.045a1.112,1.112,0,0,1,.339.124.717.717,0,0,1,.263.265.872.872,0,0,1,.1.438.971.971,0,0,1-.071.378.74.74,0,0,1-.229.3,1.146,1.146,0,0,1-.429.2A2.705,2.705,0,0,1,178.788,116.625Zm-.649-.364h.683a1.55,1.55,0,0,0,.533-.076.533.533,0,0,0,.387-.545.494.494,0,0,0-.223-.454,1.191,1.191,0,0,0-.629-.138h-.847v-.353h.847a.943.943,0,0,0,.438-.088.565.565,0,0,0,.246-.229.61.61,0,0,0,.079-.308.494.494,0,0,0-.175-.418.878.878,0,0,0-.525-.13h-.813v2.738Z" transform="translate(-127.547 -81.216)"/>
    <path id="Path_1189" data-name="Path 1189" d="M194,116.626V113.16h2.154v.375h-1.976l.243-.313v3.339l-.22-.31h1.948v.375Zm.333-1.572v-.367h1.722v.367Z" transform="translate(-139.238 -81.218)"/>
    <path id="Path_1190" data-name="Path 1190" d="M209.39,116.624v-3.466h1.171a2,2,0,0,1,.661.093.742.742,0,0,1,.4.3.979.979,0,0,1,.133.545,1.205,1.205,0,0,1-.11.519.824.824,0,0,1-.37.378,1.454,1.454,0,0,1-.7.147l.138-.192.548.683c.087.1.178.217.282.336s.186.237.282.353l.243.3h-.528l-.33-.423-.316-.4-.621-.8.282.215h-.793v-.361h.649a1.465,1.465,0,0,0,.5-.071.545.545,0,0,0,.3-.229.78.78,0,0,0,.1-.415.72.72,0,0,0-.068-.342.426.426,0,0,0-.183-.183.734.734,0,0,0-.246-.076,1.974,1.974,0,0,0-.251-.017h-1.022l.282-.3v3.4Z" transform="translate(-150.284 -81.216)"/>
    <path id="Path_1191" data-name="Path 1191" d="M235.6,116.521a1.976,1.976,0,0,1-.74-.133,1.592,1.592,0,0,1-.565-.378,1.674,1.674,0,0,1-.353-.565,2.018,2.018,0,0,1-.124-.714,1.937,1.937,0,0,1,.217-.929,1.589,1.589,0,0,1,.6-.635,1.716,1.716,0,0,1,.895-.229,2.214,2.214,0,0,1,.336.025,2.465,2.465,0,0,1,.308.065c.1.028.186.059.282.09a1.9,1.9,0,0,1,.212.1l-.037.423a2.608,2.608,0,0,0-.37-.181,2.123,2.123,0,0,0-.35-.1,1.95,1.95,0,0,0-.333-.031,1.3,1.3,0,0,0-.666.169,1.23,1.23,0,0,0-.46.486,1.6,1.6,0,0,0-.167.751,1.646,1.646,0,0,0,.088.545,1.313,1.313,0,0,0,.257.449,1.2,1.2,0,0,0,.426.3,1.479,1.479,0,0,0,.593.113,1.793,1.793,0,0,0,.246-.017,1.717,1.717,0,0,0,.246-.051,1.446,1.446,0,0,0,.24-.09,1.523,1.523,0,0,0,.234-.135l.034.418a1.3,1.3,0,0,1-.226.116,1.815,1.815,0,0,1-.257.079,2.8,2.8,0,0,1-.282.045A2.453,2.453,0,0,1,235.6,116.521Z" transform="translate(-167.817 -81.059)"/>
    <path id="Path_1192" data-name="Path 1192" d="M252.521,116.534a1.975,1.975,0,0,1-.771-.141,1.541,1.541,0,0,1-.55-.392,1.693,1.693,0,0,1-.33-.565,2.1,2.1,0,0,1-.11-.683,1.976,1.976,0,0,1,.206-.912,1.558,1.558,0,0,1,.6-.644,1.75,1.75,0,0,1,.946-.24,1.93,1.93,0,0,1,.748.138,1.55,1.55,0,0,1,.545.384,1.693,1.693,0,0,1,.333.565,2.162,2.162,0,0,1,.113.7,2.013,2.013,0,0,1-.206.917,1.555,1.555,0,0,1-.59.641A1.764,1.764,0,0,1,252.521,116.534Zm0-.378a1.33,1.33,0,0,0,.565-.116,1.129,1.129,0,0,0,.4-.316,1.358,1.358,0,0,0,.231-.454,1.824,1.824,0,0,0,.076-.528,1.846,1.846,0,0,0-.082-.565,1.3,1.3,0,0,0-.243-.449,1.149,1.149,0,0,0-.4-.3,1.307,1.307,0,0,0-.565-.107,1.327,1.327,0,0,0-.565.113,1.129,1.129,0,0,0-.4.313,1.313,1.313,0,0,0-.24.452,1.818,1.818,0,0,0,0,1.07,1.293,1.293,0,0,0,.237.449,1.1,1.1,0,0,0,.4.313A1.344,1.344,0,0,0,252.521,116.156Z" transform="translate(-179.976 -81.071)"/>
    <path id="Path_1193" data-name="Path 1193" d="M270,116.669c.023-.189.045-.373.068-.565s.051-.384.076-.6l.144-1.129c.025-.212.048-.409.071-.593s.048-.375.073-.565h.443c.1.246.2.483.282.714s.189.457.282.683l.55,1.346h.034l.545-1.344.282-.686c.093-.226.189-.466.282-.714h.443c.023.2.048.387.068.565s.048.381.076.6l.141,1.155c.025.212.048.406.071.587s.048.367.071.565h-.423c-.037-.308-.071-.6-.1-.878s-.068-.536-.1-.776L273.252,114h-.031l-.44,1.129-.322.813c-.1.282-.206.525-.3.759h-.3l-.195-.486q-.11-.265-.22-.542l-.22-.539L270.773,114h-.034l-.124,1.033q-.048.364-.093.779c-.034.282-.071.565-.107.878Z" transform="translate(-193.785 -81.261)"/>
    <path id="Path_1194" data-name="Path 1194" d="M291.68,116.669c.023-.189.048-.373.071-.565s.048-.384.073-.6l.144-1.129c.025-.212.051-.409.073-.593s.045-.375.073-.565h.44l.282.714.282.683.548,1.346h.037l.542-1.344q.138-.347.282-.686l.282-.714h.443c.025.2.048.387.071.565s.045.381.073.6l.141,1.155c.025.212.051.406.073.587s.045.367.068.565h-.421c-.037-.308-.073-.6-.107-.878s-.065-.536-.1-.776L294.929,114H294.9l-.44,1.129c-.1.282-.212.542-.319.813s-.209.525-.3.759h-.291l-.195-.486q-.1-.265-.22-.542l-.22-.539L292.459,114h-.031l-.127,1.033q-.042.364-.093.779c-.034.282-.071.565-.107.878Z" transform="translate(-209.345 -81.261)"/>
    <path id="Path_1195" data-name="Path 1195" d="M314.794,116.68a1.646,1.646,0,0,1-.788-.167,1.016,1.016,0,0,1-.443-.469,1.637,1.637,0,0,1-.144-.709V113.16h.446v2.134a1.411,1.411,0,0,0,.093.539.694.694,0,0,0,.3.347,1.284,1.284,0,0,0,1.09,0,.683.683,0,0,0,.282-.347,1.488,1.488,0,0,0,.09-.545V113.16h.438v2.176a1.638,1.638,0,0,1-.144.709,1.03,1.03,0,0,1-.443.469A1.618,1.618,0,0,1,314.794,116.68Z" transform="translate(-224.948 -81.218)"/>
    <path id="Path_1196" data-name="Path 1196" d="M331.34,116.626V113.16h.4c.209.282.406.565.6.847l.565.8.751,1.061h.037v-2.7h.418v3.466h-.39l-.545-.768-.624-.884-.756-1.067h-.034v2.718Z" transform="translate(-237.81 -81.218)"/>
    <path id="Path_1197" data-name="Path 1197" d="M349.52,116.626V113.16h.449v3.466Z" transform="translate(-250.858 -81.218)"/>
    <path id="Path_1198" data-name="Path 1198" d="M359.608,116.626v-3.4l.175.327H358.42v-.39h2.823v.39h-1.366l.178-.327v3.4Z" transform="translate(-257.246 -81.218)"/>
    <path id="Path_1199" data-name="Path 1199" d="M375.828,115.271l-.757-1.282-.234-.4c-.073-.127-.158-.282-.257-.435h.5c.09.155.167.282.229.4s.124.217.181.316.119.212.189.33l.333.59h.045l.325-.565.2-.347c.056-.1.119-.215.183-.325l.229-.4h.494l-.246.418-.243.409-.756,1.284Zm0,1.355V114.9h.438v1.722Z" transform="translate(-268.845 -81.218)"/>
    <path id="Path_1200" data-name="Path 1200" d="M399.47,116.626l.215-.587c.073-.206.144-.4.212-.587l.432-1.191c.076-.215.144-.406.209-.581s.124-.344.189-.519h.587q.093.268.186.525l.206.565.429,1.194c.068.189.138.387.209.59s.144.4.209.565H402.1c-.071-.2-.141-.412-.215-.627l-.209-.607-.641-1.809h-.04l-.638,1.818c-.071.2-.141.406-.217.621s-.147.426-.22.629Zm.644-.869.04-.347h1.753l.034.347Z" transform="translate(-286.709 -81.218)"/>
    <path id="Path_1201" data-name="Path 1201" d="M416.85,116.626v-.254l.308-.4.344-.449.319-.415,1.321-1.725.1.155h-2.351v-.375h2.721v.316c-.152.195-.3.387-.446.565l-.435.565-1.394,1.812-.065-.183h2.36v.375Z" transform="translate(-299.183 -81.218)"/>
    <path id="Path_1202" data-name="Path 1202" d="M434.35,116.626V113.16h2.159v.375h-1.976l.243-.313v3.339l-.217-.31h1.951v.375Zm.336-1.572v-.367h1.722v.367Z" transform="translate(-311.743 -81.218)"/>
    <path id="Path_1203" data-name="Path 1203" d="M449.74,116.624v-3.466h1.171a2,2,0,0,1,.661.093.748.748,0,0,1,.4.3,1,1,0,0,1,.133.545,1.168,1.168,0,0,1-.113.519.819.819,0,0,1-.367.378,1.462,1.462,0,0,1-.7.147l.138-.192.548.683.282.336.282.353.243.3h-.514l-.333-.423-.313-.4-.624-.8.282.215H450.1v-.361h.658a1.493,1.493,0,0,0,.5-.071.548.548,0,0,0,.282-.229.779.779,0,0,0,.1-.415.717.717,0,0,0-.071-.342.412.412,0,0,0-.183-.183.7.7,0,0,0-.243-.076,1.977,1.977,0,0,0-.254-.017h-1.022l.282-.3v3.4Z" transform="translate(-322.789 -81.216)"/>
    <path id="Path_1204" data-name="Path 1204" d="M467.531,116.625H466.45v-3.466h1.284a1.977,1.977,0,0,1,.517.056.909.909,0,0,1,.344.164.624.624,0,0,1,.2.257.846.846,0,0,1,.065.339.875.875,0,0,1-.082.387.774.774,0,0,1-.217.282.876.876,0,0,1-.313.164v.045a1.129,1.129,0,0,1,.342.124.692.692,0,0,1,.26.265.847.847,0,0,1,.1.438,1.024,1.024,0,0,1-.068.378.765.765,0,0,1-.229.3,1.182,1.182,0,0,1-.432.2A2.7,2.7,0,0,1,467.531,116.625Zm-.649-.364h.683a1.549,1.549,0,0,0,.534-.076.581.581,0,0,0,.282-.215.564.564,0,0,0,.09-.33.488.488,0,0,0-.223-.454,1.186,1.186,0,0,0-.627-.138h-.847v-.353h.847a.923.923,0,0,0,.435-.088.565.565,0,0,0,.248-.229.638.638,0,0,0,.076-.308.486.486,0,0,0-.175-.418.872.872,0,0,0-.525-.13h-.793v2.738Z" transform="translate(-334.782 -81.216)"/>
    <path id="Path_1205" data-name="Path 1205" d="M481.61,116.626l.215-.587c.073-.206.144-.4.212-.587l.429-1.191c.079-.215.147-.406.212-.581s.124-.344.189-.519h.579q.093.268.186.525l.206.565.423,1.208c.068.189.138.387.209.59s.141.4.209.565h-.457c-.071-.2-.141-.412-.215-.627l-.209-.607-.632-1.838h-.034l-.638,1.832c-.071.2-.141.406-.217.621s-.147.426-.22.629Zm.644-.869.037-.347h1.756l.034.347Z" transform="translate(-345.663 -81.218)"/>
    <path id="Path_1206" data-name="Path 1206" d="M499.78,116.626V113.16h.446v3.466Z" transform="translate(-358.703 -81.218)"/>
    <path id="Path_1207" data-name="Path 1207" d="M508.4,117.394a2.193,2.193,0,0,0,.24-.319,1.273,1.273,0,0,0,.152-.347,1.534,1.534,0,0,0,.054-.432V113.16h.443v3.176a1.726,1.726,0,0,1-.037.359,1.352,1.352,0,0,1-.1.282,1.294,1.294,0,0,1-.138.229,2.169,2.169,0,0,1-.167.186Z" transform="translate(-364.89 -81.218)"/>
    <path id="Path_1208" data-name="Path 1208" d="M518.83,116.626c.068-.186.138-.384.215-.587s.144-.4.212-.587l.429-1.191.209-.581c.065-.172.127-.344.192-.519h.579q.093.268.186.525l.206.565.429,1.194c.068.189.138.387.209.59s.141.4.209.565h-.457c-.07-.2-.141-.412-.215-.627l-.209-.607-.632-1.838h-.039l-.627,1.846c-.071.2-.141.406-.217.621s-.147.426-.22.629Zm.644-.869.037-.347h1.756l.031.347Z" transform="translate(-372.376 -81.218)"/>
    <path id="Path_1209" data-name="Path 1209" d="M537,116.626V113.16h.4c.206.282.406.565.6.847l.565.8.751,1.061h.037v-2.7h.418v3.466h-.39l-.542-.768-.627-.884-.757-1.067h-.034v2.718Z" transform="translate(-385.417 -81.218)"/>
    <path id="Path_1210" data-name="Path 1210" d="M159.87,30.725l.2-.215v.008l-.2.215Z" transform="translate(-114.742 -21.898)" fill="none"/>
    <path id="Path_1211" data-name="Path 1211" d="M32.226,0H11.21V2.58H29.651v5.6h2.6ZM20.935,29.3l2.157,1.609.98-.728V26.963Zm-1.081,2.411-1.078-.8L17.138,32.12,4.65,22.842V14.035a2.092,2.092,0,0,1,0-2.193V2.58H8.63V0H2.07V24.14l15.079,11.2,3.794-2.823Zm12.4-16.285H29.677v7.365l-3.029,2.258v3.215l5.612-4.175Zm0-4.663H29.668v2.083h2.586ZM20.963,29.3l1.078.8,2.058-1.53V26.963Z" transform="translate(-1.486)"/>
    <path id="Path_1212" data-name="Path 1212" d="M8.464,24.027V17.9a2.14,2.14,0,0,1-.534-.581v8.807l12.5,9.278,1.637-1.217Zm21.478.423v5.482l4.322-3.224L34.247,18.7h-8.4l-2.258,2.044v2.778a2.092,2.092,0,0,1,0,3.356,2.117,2.117,0,0,1-.508.282H21.6a2.128,2.128,0,0,1-.6-.347,2.089,2.089,0,0,1,0-3.218V19.607l3.839-3.483h9.394V14.04H29.818L26,10.791H21.369a2.089,2.089,0,1,1,.071-2.58h5.513l3.814,3.255h3.466V4.576H14.49v7.1L18.033,13.9v4.584a2.089,2.089,0,1,1-2.58,0V15.33L11.91,13.106V4.57H6.64v22.2L20.429,37.009l2.716-2.021-1.078-.8L8.464,24.027V17.9a2.14,2.14,0,0,1-.534-.581,2.092,2.092,0,0,1,1.778-3.187A1.96,1.96,0,0,1,11.8,16.22a2.083,2.083,0,0,1-.757,1.606v4.909l13.182,9.843,1.078.8,2.058-1.53v-7.4a2.089,2.089,0,1,1,2.58,0Z" transform="translate(-4.766 -3.28)"/>
    <rect id="Rectangle_321" data-name="Rectangle 321" width="4.615" height="1.236" transform="translate(15.765 34.139)" fill="#05f2fa"/>
    <rect id="Rectangle_322" data-name="Rectangle 322" width="7.703" height="1.078" transform="translate(25.755 14.741)" fill="#05f2fa"/>
    <rect id="Rectangle_323" data-name="Rectangle 323" width="4.418" height="1.132" transform="translate(0 0.745)" fill="#05f2fa"/>
  </g>
</svg>
