<svg id="logo-white" xmlns="http://www.w3.org/2000/svg" width="167.205" height="38.929" viewBox="0 0 167.205 38.929">
  <g id="Layer_1" data-name="Layer 1">
    <path id="Path_1115" data-name="Path 1115" d="M32.366,0H9.859V2.763h19.75v6H32.4ZM20.274,31.377l2.31,1.723,1.049-.78V28.877Zm-1.158,2.582L17.961,33.1l-1.753,1.3L2.833,24.463V15.031a2.24,2.24,0,0,1,0-2.349V2.763H7.1V0H.07V25.854l16.15,11.99,4.063-3.023ZM32.4,16.519h-2.76v7.887l-3.244,2.419v3.443L32.4,25.8Zm0-4.994H29.628v2.231H32.4ZM20.3,31.377l1.155.862,2.2-1.639V28.877Z" transform="translate(-0.049)" fill="#54e454"/>
    <path id="Path_1116" data-name="Path 1116" d="M6.593,25.409V18.842a2.292,2.292,0,0,1-.571-.623v9.432l13.387,9.937,1.753-1.3Zm23,.453v5.871l4.628-3.452L34.207,19.7h-9l-2.419,2.189v2.975a2.24,2.24,0,0,1,0,3.595,2.267,2.267,0,0,1-.544.3H20.666a2.28,2.28,0,0,1-.638-.372,2.237,2.237,0,0,1,0-3.446V20.674l4.112-3.731H34.2V14.713H29.463l-4.084-3.48H20.415A2.237,2.237,0,1,1,20.49,8.47h5.9l4.084,3.486h3.712V4.576H13.047v7.609l3.794,2.382v4.91a2.237,2.237,0,1,1-2.763,0V16.094l-3.794-2.382V4.57H4.64V28.347L19.408,39.312l2.908-2.165-1.155-.862L6.593,25.409V18.842a2.292,2.292,0,0,1-.571-.623,2.24,2.24,0,0,1,1.9-3.413,2.1,2.1,0,0,1,2.24,2.24,2.231,2.231,0,0,1-.81,1.72v5.257L23.474,34.566l1.155.862,2.2-1.639V25.862a2.237,2.237,0,1,1,2.763,0Z" transform="translate(-3.237 -3.188)" fill="#54e454"/>
    <path id="Path_1117" data-name="Path 1117" d="M39.366,0H16.859V2.763h19.75v6H39.4ZM27.274,31.377l2.31,1.723,1.049-.78V28.877Zm-1.158,2.582L24.961,33.1l-1.753,1.3L9.833,24.463V15.031a2.24,2.24,0,0,1,0-2.349V2.763H14.1V0H7.07V25.854l16.15,11.99,4.063-3.023ZM39.4,16.519H36.634v7.887L33.39,26.825v3.443L39.4,25.8Zm0-4.994H36.634v2.231H39.4ZM27.3,31.377l1.155.862,2.2-1.639V28.877Z" transform="translate(-4.933)" fill="#173faa"/>
    <path id="Path_1118" data-name="Path 1118" d="M13.593,25.409V18.842a2.292,2.292,0,0,1-.571-.623v9.432l13.387,9.937,1.753-1.3Zm23,.453v5.871l4.628-3.452L41.207,19.7h-9l-2.419,2.189v2.975a2.24,2.24,0,0,1,0,3.595,2.267,2.267,0,0,1-.544.3H27.666a2.28,2.28,0,0,1-.638-.372,2.237,2.237,0,0,1,0-3.446V20.674l4.112-3.731H41.2V14.713H36.463l-4.084-3.48H27.415A2.237,2.237,0,1,1,27.49,8.47h5.9l4.084,3.486h3.712V4.576H20.047v7.609l3.794,2.382v4.91a2.237,2.237,0,1,1-2.763,0V16.094l-3.794-2.382V4.57H11.64V28.347L26.408,39.312l2.908-2.165-1.155-.862L13.593,25.409V18.842a2.292,2.292,0,0,1-.571-.623,2.24,2.24,0,0,1,1.9-3.413,2.1,2.1,0,0,1,2.24,2.24,2.231,2.231,0,0,1-.81,1.72v5.257L30.474,34.566l1.155.862,2.2-1.639V25.862a2.237,2.237,0,1,1,2.763,0Z" transform="translate(-8.121 -3.188)" fill="#173faa"/>
    <path id="Path_1119" data-name="Path 1119" d="M36.366,0H13.859V2.763h19.75v6H36.4ZM24.274,31.377l2.31,1.723,1.049-.78V28.877Zm-1.158,2.582L21.961,33.1l-1.753,1.3L6.833,24.463V15.031a2.24,2.24,0,0,1,0-2.349V2.763H11.1V0H4.07V25.854l16.15,11.99,4.063-3.023ZM36.4,16.519H33.634v7.887L30.39,26.825v3.443L36.4,25.8Zm0-4.994H33.634v2.231H36.4ZM24.3,31.377l1.155.862,2.2-1.639V28.877Z" transform="translate(-2.84)" fill="#df1917"/>
    <path id="Path_1120" data-name="Path 1120" d="M10.593,25.409V18.842a2.292,2.292,0,0,1-.571-.623v9.432l13.387,9.937,1.753-1.3Zm23,.453v5.871l4.628-3.452L38.207,19.7h-9l-2.419,2.189v2.975a2.24,2.24,0,0,1,0,3.595,2.267,2.267,0,0,1-.544.3H24.666a2.28,2.28,0,0,1-.638-.372,2.237,2.237,0,0,1,0-3.446V20.674l4.112-3.731H38.2V14.713H33.463l-4.084-3.48H24.415A2.237,2.237,0,1,1,24.49,8.47h5.9l4.084,3.486h3.712V4.576H17.047v7.609l3.794,2.382v4.91a2.237,2.237,0,1,1-2.763,0V16.094l-3.794-2.382V4.57H8.64V28.347L23.408,39.312l2.908-2.165-1.155-.862L10.593,25.409V18.842a2.292,2.292,0,0,1-.571-.623,2.24,2.24,0,0,1,1.9-3.413,2.1,2.1,0,0,1,2.24,2.24,2.231,2.231,0,0,1-.81,1.72v5.257L27.474,34.566l1.155.862,2.2-1.639V25.862a2.237,2.237,0,1,1,2.763,0Z" transform="translate(-6.028 -3.188)" fill="#df1917"/>
    <path id="Path_1121" data-name="Path 1121" d="M152.733.19H142.79V9.142h4.459v9.115H145.19v9.076h9.946V18.256H157.2V9.142h-4.462Z" transform="translate(-99.622 -0.133)" fill="#54e454"/>
    <path id="Path_1122" data-name="Path 1122" d="M349.046.19H319.21V5.617H339.1V9.142h2.745v1.9H331.9v5.427h9.943v1.784h-2.059V21.9H319.9v5.43h29.836V18.256h2.059V16.473h-4.973V11.046h4.973v-1.9h-2.745Z" transform="translate(-222.707 -0.133)" fill="#54e454"/>
    <path id="Path_1123" data-name="Path 1123" d="M227.636.19H197.8V5.617h19.889V9.269h2.745v1.778h-9.943v5.427h9.943v1.784h-2.059V21.9H198.486v5.43h31.891V16.473h-4.97V11.046h4.97v-1.9h-2.742Z" transform="translate(-138.002 -0.133)" fill="#54e454"/>
    <path id="Path_1124" data-name="Path 1124" d="M464.183,9.142V.19H434.35V5.617h19.886V9.142h2.745v9.115h-2.059v9.076h9.946V18.256h2.059V9.142Z" transform="translate(-303.039 -0.133)" fill="#54e454"/>
    <path id="Path_1125" data-name="Path 1125" d="M163.7.19H153.76V9.142h4.459v9.115H156.16v9.076h9.946V18.256h2.059V9.142H163.7Z" transform="translate(-107.276 -0.133)" fill="#173faa"/>
    <path id="Path_1126" data-name="Path 1126" d="M360.016.19H330.18V5.617h19.889V9.142h2.745v1.9h-9.943v5.427h9.943v1.784h-2.059V21.9H330.866v5.43H360.7V18.256h2.059V16.473h-4.973V11.046h4.973v-1.9h-2.745Z" transform="translate(-230.361 -0.133)" fill="#173faa"/>
    <path id="Path_1127" data-name="Path 1127" d="M238.606.19H208.77V5.617h19.889V9.269H231.4v1.778h-9.943v5.427H231.4v1.784h-2.059V21.9H209.456v5.43h31.894V16.473h-4.973V11.046h4.973v-1.9h-2.745Z" transform="translate(-145.655 -0.133)" fill="#173faa"/>
    <path id="Path_1128" data-name="Path 1128" d="M475.146,9.142V.19H445.31V5.617H465.2V9.142h2.745v9.115h-2.059v9.076h9.946V18.256h2.059V9.142Z" transform="translate(-310.685 -0.133)" fill="#173faa"/>
    <path id="Path_1129" data-name="Path 1129" d="M160.676.19H150.73V9.142h4.462v9.115h-2.059v9.076h9.943V18.256h2.059V9.142h-4.459Z" transform="translate(-105.162 -0.133)" fill="#df1917"/>
    <path id="Path_1130" data-name="Path 1130" d="M356.993.19H327.16V5.617h19.886V9.142h2.745v1.9h-9.943v5.427h9.943v1.784h-2.059V21.9H327.846v5.43h29.833V18.256h2.059V16.473h-4.973V11.046h4.973v-1.9h-2.745Z" transform="translate(-228.254 -0.133)" fill="#df1917"/>
    <path id="Path_1131" data-name="Path 1131" d="M235.583.19H205.75V5.617h19.889V9.269h2.745v1.778h-9.946v5.427h9.946v1.784h-2.059V21.9H206.436v5.43h31.891V16.473h-4.973V11.046h4.973v-1.9h-2.745Z" transform="translate(-143.548 -0.133)" fill="#df1917"/>
    <path id="Path_1132" data-name="Path 1132" d="M472.123,9.142V.19H442.29V5.617h19.889V9.142h2.745v9.115h-2.059v9.076h9.943V18.256h2.059V9.142Z" transform="translate(-308.578 -0.133)" fill="#df1917"/>
    <path id="Path_1133" data-name="Path 1133" d="M156.516.19H146.57V9.142h4.459v9.115H148.97v9.076h9.946V18.256h2.059V9.142h-4.459Z" transform="translate(-102.259 -0.133)" fill="#fff"/>
    <path id="Path_1134" data-name="Path 1134" d="M352.833.19H323V5.617h19.886V9.142h2.745v1.9h-9.943v5.427h9.943v1.784h-2.059V21.9H323.683v5.43h29.836V18.256h2.059V16.473H350.6V11.046h4.973v-1.9h-2.745Z" transform="translate(-225.352 -0.133)" fill="#fff"/>
    <path id="Path_1135" data-name="Path 1135" d="M231.423.19H201.59V5.617h19.889V9.269h2.745v1.778h-9.946v5.427h9.946v1.784h-2.059V21.9H202.273v5.43h31.894V16.473h-4.973V11.046h4.973v-1.9h-2.745Z" transform="translate(-140.646 -0.133)" fill="#fff"/>
    <path id="Path_1136" data-name="Path 1136" d="M467.963,9.142V.19H438.13V5.617h19.889V9.142h2.745v9.115h-2.059v9.076h9.943V18.256h2.059V9.142Z" transform="translate(-305.676 -0.133)" fill="#fff"/>
    <rect id="Rectangle_295" data-name="Rectangle 295" width="1.028" height="3.622" transform="translate(116.084 18.124)" fill="#df1917"/>
    <rect id="Rectangle_296" data-name="Rectangle 296" width="2.059" height="4.495" transform="translate(151.881 13.628)" fill="#173faa"/>
    <rect id="Rectangle_297" data-name="Rectangle 297" width="7.549" height="0.998" transform="translate(72.786 20.748)" fill="#df1917"/>
    <rect id="Rectangle_298" data-name="Rectangle 298" width="3.202" height="2.134" transform="translate(43.667 25.065)" fill="#173faa"/>
    <rect id="Rectangle_299" data-name="Rectangle 299" width="2.491" height="2.491" transform="translate(130.386 24.736)" fill="#05f2fa"/>
    <rect id="Rectangle_300" data-name="Rectangle 300" width="4.033" height="1.306" transform="translate(54.344 7.652)" fill="#05f2fa"/>
    <rect id="Rectangle_301" data-name="Rectangle 301" width="4.39" height="2.373" transform="translate(78.188 20.582)" fill="#05f2fa"/>
    <rect id="Rectangle_302" data-name="Rectangle 302" width="4.39" height="2.373" transform="translate(147.706 3.144)" fill="#05f2fa"/>
    <rect id="Rectangle_303" data-name="Rectangle 303" width="12.573" height="1.185" transform="translate(60.751 4.329)" fill="#05f2fa"/>
    <rect id="Rectangle_304" data-name="Rectangle 304" width="12.573" height="1.185" transform="translate(60.751 4.329)" fill="#05f2fa"/>
    <rect id="Rectangle_305" data-name="Rectangle 305" width="7.591" height="1.185" transform="translate(107.607 4.329)" fill="#05f2fa"/>
    <path id="Path_1137" data-name="Path 1137" d="M145.536,117.389a2.065,2.065,0,0,1-.792-.142,1.66,1.66,0,0,1-.6-.4,1.742,1.742,0,0,1-.381-.6,2.144,2.144,0,0,1-.13-.762,2.059,2.059,0,0,1,.233-1,1.729,1.729,0,0,1,.641-.677,1.844,1.844,0,0,1,.958-.245,2.765,2.765,0,0,1,.36.024,2.685,2.685,0,0,1,.333.073,2.282,2.282,0,0,1,.287.1,1.653,1.653,0,0,1,.23.106l-.042.453a2.478,2.478,0,0,0-.393-.193,1.919,1.919,0,0,0-.378-.124,1.852,1.852,0,0,0-.36-.033,1.4,1.4,0,0,0-.713.181,1.255,1.255,0,0,0-.49.52,1.672,1.672,0,0,0-.178.8,1.814,1.814,0,0,0,.091.58,1.4,1.4,0,0,0,.278.484,1.248,1.248,0,0,0,.453.326,1.587,1.587,0,0,0,.635.118,2.613,2.613,0,0,0,.266,0,2.034,2.034,0,0,0,.263-.054,1.654,1.654,0,0,0,.257-.1,2.3,2.3,0,0,0,.248-.145l.036.447a1.357,1.357,0,0,1-.239.121,1.65,1.65,0,0,1-.278.085,1.892,1.892,0,0,1-.3.048A2.5,2.5,0,0,1,145.536,117.389Z" transform="translate(-100.207 -79.228)" fill="#fff"/>
    <path id="Path_1138" data-name="Path 1138" d="M161.526,116.024l-.81-1.373c-.088-.145-.172-.287-.251-.423l-.275-.469h.547c.1.166.178.3.245.429s.133.233.193.342l.2.351.36.635h.045l.351-.6.212-.372.2-.348.245-.426h.529l-.266.45-.257.438-.81,1.376Zm0,1.451v-1.829H162v1.844Z" transform="translate(-111.762 -79.368)" fill="#fff"/>
    <path id="Path_1139" data-name="Path 1139" d="M178.865,117.475H177.71v-3.715h1.363a2.222,2.222,0,0,1,.553.06A1.064,1.064,0,0,1,180,114a.7.7,0,0,1,.212.275,1.049,1.049,0,0,1-.018.78.832.832,0,0,1-.236.3,1,1,0,0,1-.333.175v.045a1.122,1.122,0,0,1,.363.136.783.783,0,0,1,.281.281.955.955,0,0,1,.106.472,1.049,1.049,0,0,1-.076.405.765.765,0,0,1-.245.323,1.182,1.182,0,0,1-.46.215,2.881,2.881,0,0,1-.729.07Zm-.7-.393h.732a1.745,1.745,0,0,0,.571-.079.632.632,0,0,0,.317-.23.647.647,0,0,0,.1-.354.535.535,0,0,0-.239-.49,1.306,1.306,0,0,0-.674-.145h-.907v-.378h.907a1.049,1.049,0,0,0,.469-.094.6.6,0,0,0,.263-.245.665.665,0,0,0,.085-.333.517.517,0,0,0-.19-.444.922.922,0,0,0-.559-.142h-.871v2.932Z" transform="translate(-123.985 -79.368)" fill="#fff"/>
    <path id="Path_1140" data-name="Path 1140" d="M194,117.475V113.76h2.307v.405H194.19l.26-.336V117.4l-.236-.333H196.3v.405Zm.357-1.687V115.4H196.2v.393Z" transform="translate(-135.351 -79.368)" fill="#fff"/>
    <path id="Path_1141" data-name="Path 1141" d="M209.39,117.474v-3.715h1.255a2.141,2.141,0,0,1,.707.1.8.8,0,0,1,.423.323,1.076,1.076,0,0,1,.142.583,1.3,1.3,0,0,1-.118.556.907.907,0,0,1-.4.405,1.511,1.511,0,0,1-.747.154l.148-.206.586.732.3.363c.1.127.2.254.3.375l.26.33h-.565l-.354-.453-.339-.429-.665-.859.3.233h-.85v-.39h.7a1.569,1.569,0,0,0,.535-.076.58.58,0,0,0,.317-.242.838.838,0,0,0,.1-.447.777.777,0,0,0-.073-.366.493.493,0,0,0-.2-.2.786.786,0,0,0-.263-.082,2.115,2.115,0,0,0-.269-.018h-1.094l.3-.32v3.646Z" transform="translate(-146.088 -79.367)" fill="#fff"/>
    <path id="Path_1142" data-name="Path 1142" d="M235.727,117.389a2.064,2.064,0,0,1-.792-.142,1.7,1.7,0,0,1-.6-.4,1.778,1.778,0,0,1-.378-.6,2.147,2.147,0,0,1-.133-.762,2.1,2.1,0,0,1,.233-1,1.714,1.714,0,0,1,.644-.677,1.829,1.829,0,0,1,.958-.245,2.839,2.839,0,0,1,.36.024,2.639,2.639,0,0,1,.33.073,2.511,2.511,0,0,1,.3.1,1.6,1.6,0,0,1,.227.106l-.039.453a2.5,2.5,0,0,0-.4-.193,1.977,1.977,0,0,0-.732-.142,1.391,1.391,0,0,0-.713.181,1.279,1.279,0,0,0-.493.52,1.708,1.708,0,0,0-.178.8,1.744,1.744,0,0,0,.094.58,1.39,1.39,0,0,0,.275.484,1.287,1.287,0,0,0,.456.327,1.587,1.587,0,0,0,.635.118,2.554,2.554,0,0,0,.263,0,1.84,1.84,0,0,0,.263-.054,1.655,1.655,0,0,0,.257-.1,2.339,2.339,0,0,0,.251-.145l.036.447a1.39,1.39,0,0,1-.242.121,1.706,1.706,0,0,1-.275.085,1.951,1.951,0,0,1-.3.048A2.53,2.53,0,0,1,235.727,117.389Z" transform="translate(-163.132 -79.228)" fill="#fff"/>
    <path id="Path_1143" data-name="Path 1143" d="M252.646,117.388a2.053,2.053,0,0,1-.825-.151,1.615,1.615,0,0,1-.59-.42,1.759,1.759,0,0,1-.354-.6,2.261,2.261,0,0,1-.118-.732,2.116,2.116,0,0,1,.221-.976,1.7,1.7,0,0,1,.638-.692,1.9,1.9,0,0,1,1.013-.254,1.99,1.99,0,0,1,.8.148,1.645,1.645,0,0,1,.587.411,1.814,1.814,0,0,1,.357.6,2.334,2.334,0,0,1,.121.75,2.165,2.165,0,0,1-.221.983,1.66,1.66,0,0,1-.632.683,1.862,1.862,0,0,1-.995.251Zm0-.405a1.424,1.424,0,0,0,.6-.124,1.17,1.17,0,0,0,.426-.336,1.455,1.455,0,0,0,.248-.487,2.023,2.023,0,0,0,0-1.158,1.408,1.408,0,0,0-.26-.484,1.209,1.209,0,0,0-.429-.32,1.4,1.4,0,0,0-.6-.118,1.421,1.421,0,0,0-.6.124,1.233,1.233,0,0,0-.429.333,1.421,1.421,0,0,0-.257.487,1.938,1.938,0,0,0,0,1.143,1.4,1.4,0,0,0,.254.484,1.182,1.182,0,0,0,.429.336,1.439,1.439,0,0,0,.623.121Z" transform="translate(-174.95 -79.227)" fill="#fff"/>
    <path id="Path_1144" data-name="Path 1144" d="M270,117.517l.073-.6c.027-.2.054-.408.082-.641l.154-1.209c.027-.23.051-.441.076-.638s.051-.4.079-.6h.475l.3.765q.154.366.3.735l.59,1.442h.036l.583-1.442c.1-.245.2-.49.3-.735s.2-.5.3-.765h.475c.024.212.051.417.073.6s.051.408.082.638l.148,1.236c.03.224.054.435.079.629s.048.393.073.6h-.45c-.039-.333-.076-.644-.112-.94s-.073-.574-.1-.831l-.136-1.11h-.033l-.472,1.209-.345.871c-.112.3-.221.562-.32.816h-.32c-.06-.16-.13-.333-.206-.523s-.157-.381-.236-.58l-.236-.574-.487-1.209h-.036l-.133,1.106c-.033.26-.066.535-.1.834s-.073.6-.112.94Z" transform="translate(-188.374 -79.41)" fill="#fff"/>
    <path id="Path_1145" data-name="Path 1145" d="M291.68,117.517c.024-.2.048-.4.076-.6s.051-.408.079-.641l.154-1.209c.027-.23.054-.441.079-.638s.048-.4.079-.6h.472c.109.266.212.52.3.765l.3.735.587,1.442h.039l.58-1.442.3-.735c.1-.242.2-.5.3-.765h.475c.027.212.051.417.076.6s.048.408.079.638l.151,1.236c.027.224.054.435.079.629s.048.393.073.6h-.45c-.039-.333-.079-.644-.115-.94s-.07-.574-.1-.831l-.136-1.11h-.033l-.472,1.209-.342.871c-.115.3-.224.562-.32.816h-.311l-.209-.523-.236-.58L293,115.87l-.487-1.209h-.033l-.136,1.106c-.03.26-.063.535-.1.834s-.076.6-.115.94Z" transform="translate(-203.5 -79.41)" fill="#fff"/>
    <path id="Path_1146" data-name="Path 1146" d="M314.891,117.53a1.766,1.766,0,0,1-.843-.175,1.094,1.094,0,0,1-.475-.5,1.738,1.738,0,0,1-.154-.756V113.76h.478v2.289a1.511,1.511,0,0,0,.1.577.737.737,0,0,0,.32.369,1.376,1.376,0,0,0,1.167,0,.726.726,0,0,0,.3-.369,1.6,1.6,0,0,0,.1-.583V113.76h.469v2.334a1.738,1.738,0,0,1-.154.756,1.109,1.109,0,0,1-.475.5A1.735,1.735,0,0,1,314.891,117.53Z" transform="translate(-218.667 -79.368)" fill="#fff"/>
    <path id="Path_1147" data-name="Path 1147" d="M331.34,117.475V113.76h.423l.641.907.6.859.8,1.134h.039v-2.9h.447v3.715h-.417c-.184-.263-.378-.535-.583-.822l-.668-.946-.81-1.143h-.036v2.911Z" transform="translate(-231.17 -79.368)" fill="#fff"/>
    <path id="Path_1148" data-name="Path 1148" d="M349.52,117.475V113.76H350v3.715Z" transform="translate(-243.854 -79.368)" fill="#fff"/>
    <path id="Path_1149" data-name="Path 1149" d="M359.693,117.482V113.84l.187.351h-1.46v-.42h3.023v.42H359.98l.19-.351v3.646Z" transform="translate(-250.064 -79.375)" fill="#fff"/>
    <path id="Path_1150" data-name="Path 1150" d="M375.916,116.024l-.81-1.373-.251-.423c-.079-.136-.169-.3-.275-.469h.538c.1.166.178.3.245.429l.194.342.2.351.36.635h.048l.348-.6.215-.372c.06-.112.127-.227.2-.348l.245-.426h.529l-.263.45-.26.438-.81,1.376Zm0,1.451v-1.829h.469v1.844Z" transform="translate(-261.338 -79.368)" fill="#fff"/>
    <path id="Path_1151" data-name="Path 1151" d="M399.47,117.51c.073-.2.151-.411.23-.632s.154-.429.227-.626l.463-1.279c.082-.227.154-.435.224-.6s.133-.372.2-.559h.629q.1.284.2.562l.221.6.46,1.279.224.632c.079.218.154.423.224.623h-.49c-.076-.218-.151-.441-.23-.671l-.224-.65-.686-1.968H401.1l-.683,1.95c-.076.212-.151.432-.233.665s-.157.456-.236.674Zm.689-.934.039-.369h1.88l.036.369Z" transform="translate(-278.704 -79.403)" fill="#fff"/>
    <path id="Path_1152" data-name="Path 1152" d="M416.85,117.475V117.2c.1-.13.206-.272.329-.432l.369-.481.342-.447L419.3,114l.109.166H416.9v-.405h2.914v.339l-.5.62-.466.6-1.493,1.938-.07-.2h2.527v.405Z" transform="translate(-290.829 -79.368)" fill="#fff"/>
    <path id="Path_1153" data-name="Path 1153" d="M434.35,117.475V113.76h2.313v.405h-2.116l.26-.336V117.4l-.233-.333h2.089v.405Zm.36-1.687V115.4h1.844v.393Z" transform="translate(-303.039 -79.368)" fill="#fff"/>
    <path id="Path_1154" data-name="Path 1154" d="M449.74,117.474v-3.715h1.255a2.14,2.14,0,0,1,.707.1.807.807,0,0,1,.426.323,1.076,1.076,0,0,1,.142.583,1.261,1.261,0,0,1-.121.556.907.907,0,0,1-.393.405,1.533,1.533,0,0,1-.747.154l.148-.206.587.732.3.363.3.375.26.33h-.55l-.357-.453-.336-.429-.668-.859.3.233h-.88v-.39h.7a1.6,1.6,0,0,0,.538-.076.584.584,0,0,0,.3-.242.837.837,0,0,0,.106-.447.774.774,0,0,0-.076-.366.475.475,0,0,0-.2-.2.747.747,0,0,0-.26-.082,2.118,2.118,0,0,0-.272-.018h-1.094l.3-.32v3.646Z" transform="translate(-313.776 -79.367)" fill="#fff"/>
    <path id="Path_1155" data-name="Path 1155" d="M467.608,117.475H466.45v-3.715h1.376a2.259,2.259,0,0,1,.553.06,1.022,1.022,0,0,1,.369.175.669.669,0,0,1,.212.275,1.01,1.01,0,0,1-.018.78.856.856,0,0,1-.233.3.989.989,0,0,1-.336.175v.045a1.139,1.139,0,0,1,.366.136.773.773,0,0,1,.278.281.922.922,0,0,1,.106.472,1.109,1.109,0,0,1-.088.393.788.788,0,0,1-.245.323,1.209,1.209,0,0,1-.463.215,2.872,2.872,0,0,1-.719.082Zm-.7-.393h.732a1.745,1.745,0,0,0,.571-.079.571.571,0,0,0,.411-.583.529.529,0,0,0-.239-.49,1.3,1.3,0,0,0-.671-.145h-.907v-.378h.907a1.028,1.028,0,0,0,.466-.094.6.6,0,0,0,.266-.245.7.7,0,0,0,.082-.333.514.514,0,0,0-.187-.444.94.94,0,0,0-.562-.142h-.862v2.932Z" transform="translate(-325.434 -79.368)" fill="#fff"/>
    <path id="Path_1156" data-name="Path 1156" d="M481.61,117.51c.073-.2.151-.411.23-.632s.154-.429.227-.626l.46-1.279c.085-.227.157-.435.227-.6s.133-.372.2-.559h.62q.1.284.2.562l.221.6.453,1.279.224.632.224.623h-.49c-.076-.218-.151-.441-.23-.671l-.224-.65-.677-1.968h-.036l-.683,1.95c-.076.212-.151.432-.233.665s-.157.457-.236.674Zm.689-.934.039-.369h1.88l.036.369Z" transform="translate(-336.011 -79.403)" fill="#fff"/>
    <path id="Path_1157" data-name="Path 1157" d="M499.78,117.475V113.76h.478v3.715Z" transform="translate(-348.688 -79.368)" fill="#fff"/>
    <path id="Path_1158" data-name="Path 1158" d="M508.4,118.3a2.522,2.522,0,0,0,.257-.342,1.363,1.363,0,0,0,.163-.372,1.676,1.676,0,0,0,.057-.466V113.76h.475v3.4a1.814,1.814,0,0,1-.039.381,1.42,1.42,0,0,1-.1.3,1.386,1.386,0,0,1-.148.245,2.311,2.311,0,0,1-.178.2Z" transform="translate(-354.702 -79.368)" fill="#fff"/>
    <path id="Path_1159" data-name="Path 1159" d="M518.83,117.51c.073-.2.148-.411.23-.632s.154-.429.227-.626l.46-1.279.224-.6c.069-.184.136-.372.206-.559h.62q.1.284.2.562l.221.6.46,1.279.23.635.224.623h-.5c-.076-.218-.151-.441-.23-.671l-.224-.65-.677-1.968h-.045l-.668,1.947c-.076.212-.151.432-.233.665s-.157.456-.236.674Zm.689-.934.039-.369h1.88l.033.369Z" transform="translate(-361.979 -79.403)" fill="#fff"/>
    <path id="Path_1160" data-name="Path 1160" d="M537,117.475V113.76h.426c.221.3.435.6.638.907l.6.859.8,1.134h.039v-2.9h.447v3.715h-.417l-.58-.822c-.206-.3-.426-.6-.671-.946l-.81-1.143h-.036v2.911Z" transform="translate(-374.656 -79.368)" fill="#fff"/>
    <path id="Path_1161" data-name="Path 1161" d="M159.87,30.74l.218-.23v.009l-.218.23Z" transform="translate(-111.539 -21.286)" fill="none"/>
    <path id="Path_1162" data-name="Path 1162" d="M34.366,0H11.859V2.763h19.75v6H34.4ZM22.274,31.377l2.31,1.723,1.049-.78V28.877Zm-1.158,2.582L19.961,33.1l-1.753,1.3L4.833,24.463V15.031a2.24,2.24,0,0,1,0-2.349V2.763H9.1V0H2.07V25.854l16.15,11.99,4.063-3.023ZM34.4,16.519h-2.76v7.887l-3.244,2.419v3.443L34.4,25.8Zm0-4.994H31.628v2.231H34.4ZM22.3,31.377l1.155.862,2.2-1.639V28.877Z" transform="translate(-1.444)" fill="#fff"/>
    <path id="Path_1163" data-name="Path 1163" d="M8.593,25.409V18.842a2.292,2.292,0,0,1-.571-.623v9.432l13.387,9.937,1.753-1.3Zm23,.453v5.871l4.628-3.452L36.207,19.7h-9l-2.419,2.189v2.975a2.24,2.24,0,0,1,0,3.595,2.267,2.267,0,0,1-.544.3H22.666a2.279,2.279,0,0,1-.638-.372,2.237,2.237,0,0,1,0-3.446V20.674l4.112-3.731H36.2V14.713H31.463l-4.084-3.48H22.415A2.237,2.237,0,1,1,22.49,8.47h5.9l4.084,3.486h3.712V4.576H15.047v7.609l3.794,2.382v4.91a2.237,2.237,0,1,1-2.763,0V16.094l-3.794-2.382V4.57H6.64V28.347L21.408,39.312l2.908-2.165-1.155-.862L8.593,25.409V18.842a2.292,2.292,0,0,1-.571-.623,2.24,2.24,0,0,1,1.9-3.413,2.1,2.1,0,0,1,2.24,2.24,2.231,2.231,0,0,1-.81,1.72v5.257L25.474,34.566l1.155.862,2.2-1.639V25.862a2.237,2.237,0,1,1,2.763,0Z" transform="translate(-4.633 -3.188)" fill="#fff"/>
    <rect id="Rectangle_306" data-name="Rectangle 306" width="4.943" height="1.324" transform="translate(16.884 36.562)" fill="#05f2fa"/>
    <rect id="Rectangle_307" data-name="Rectangle 307" width="8.25" height="1.155" transform="translate(27.583 15.787)" fill="#05f2fa"/>
    <rect id="Rectangle_308" data-name="Rectangle 308" width="4.731" height="1.212" transform="translate(0 0.798)" fill="#05f2fa"/>
  </g>
</svg>
